# Blender v2.78 (sub 0) OBJ File: 'nukelear silo5.blend'
# www.blender.org
mtllib lamp.mtl
o Plane.001
v -12.434316 -1.113585 -0.692397
v -12.434316 -1.113585 0.692397
v -11.741918 -1.113585 -0.692397
v -11.741918 -1.113585 0.692397
v -12.088117 -1.113585 -0.692397
v -12.434316 -1.113585 -0.000000
v -12.088117 -1.113585 0.692397
v -12.261216 -1.113585 -0.692397
v -12.434316 -1.113585 0.346199
v -11.915017 -1.113585 0.692397
v -11.741918 -1.113585 -0.346199
v -11.915017 -1.113585 -0.692397
v -12.434316 -1.113585 -0.346199
v -12.261216 -1.113585 0.692397
v -11.741918 -1.113585 0.346199
v -12.261216 -1.113585 -0.000000
v -12.088117 -1.113585 -0.346199
v -12.088117 -1.113585 0.346199
v -12.261216 -1.113585 0.346199
v -12.261216 -1.113585 -0.346199
v -11.915017 -1.113585 -0.346199
v -11.915017 -1.113585 0.346199
v -12.261216 -1.113585 -0.692397
v -12.434316 -1.113585 -0.692397
v -12.434316 -1.113585 0.346199
v -12.434316 -1.113585 0.692397
v -11.915017 -1.113585 0.692397
v -11.741918 -1.113585 0.692397
v -11.741918 -1.113585 -0.346199
v -11.741918 -1.113585 -0.692397
v -11.915017 -1.113585 -0.692397
v -12.088117 -1.113585 -0.692397
v -12.434316 -1.113585 -0.346199
v -12.434316 -1.113585 -0.000000
v -12.261216 -1.113585 0.692397
v -12.088117 -1.113585 0.692397
v -12.088117 -1.113585 -0.346199
v -11.741918 -1.113585 0.346199
v -12.261216 -1.113585 -0.000000
v -12.088117 -1.113585 0.346199
v -12.261216 -1.113585 0.346199
v -12.261216 -1.113585 -0.346199
v -11.915017 -1.113585 -0.346199
v -11.915017 -1.113585 0.346199
v -12.261216 5.240963 -0.692397
v -12.434316 5.240963 -0.692397
v -12.434316 5.240963 0.346199
v -12.434316 5.240963 0.692397
v -11.915017 5.240963 0.692397
v -11.741918 5.240963 0.692397
v -11.741918 5.240963 -0.346199
v -11.741918 5.240963 -0.692397
v -11.915017 5.240963 -0.692397
v -12.088117 5.240963 -0.692397
v -12.434316 5.240963 -0.346199
v -12.434316 5.240963 -0.000000
v -12.261216 5.240963 0.692397
v -12.088117 5.240963 0.692397
v -12.088117 5.240963 -0.346199
v -11.741918 5.240963 0.346199
v -12.261216 5.240963 -0.000000
v -12.088117 5.240963 0.346199
v -12.261216 5.240963 0.346199
v -12.261216 5.240963 -0.346199
v -11.915017 5.240963 -0.346199
v -11.915017 5.240963 0.346199
v -9.917038 8.603207 -0.692397
v -10.058832 8.702494 -0.692397
v -10.058832 8.702494 0.346199
v -10.058832 8.702494 0.692397
v -9.633449 8.404634 0.692397
v -9.491654 8.305351 0.692397
v -9.491654 8.305351 -0.346198
v -9.491654 8.305351 -0.692397
v -9.633449 8.404634 -0.692397
v -9.775244 8.503922 -0.692397
v -10.058832 8.702494 -0.346199
v -10.058832 8.702494 0.000000
v -9.917038 8.603207 0.692397
v -9.775244 8.503922 0.692397
v -9.775244 8.503922 -0.346199
v -9.491654 8.305351 0.346199
v -9.917038 8.603207 0.000000
v -9.775244 8.503922 0.346199
v -9.917038 8.603207 0.346199
v -9.917038 8.603207 -0.346199
v -9.633449 8.404634 -0.346198
v -9.633449 8.404634 0.346199
v -11.741918 5.240963 0.000000
v -9.491654 8.305351 0.000000
v -11.741918 5.240963 0.346199
v -11.741918 5.240963 -0.346199
v -9.491654 8.305351 0.346199
v -9.491654 8.305351 -0.346198
vn 0.0000 -1.0000 0.0000
vn 1.0000 0.0000 0.0000
vn 0.0000 0.0000 1.0000
vn 0.0000 0.0000 -1.0000
vn -1.0000 0.0000 0.0000
vn -0.8245 0.5658 0.0000
vn 0.5736 0.8192 0.0000
vn 0.8060 -0.5919 0.0000
vn 0.5736 0.8191 0.0000
usemtl None
s off
f 15//1 10//1 22//1
f 18//1 14//1 19//1
f 16//1 9//1 6//1
f 19//1 2//1 9//1
f 5//1 20//1 8//1
f 8//1 13//1 1//1
f 20//1 6//1 13//1
f 3//1 21//1 12//1
f 12//1 17//1 5//1
f 22//1 7//1 18//1
f 38//2 50//2 28//2
f 37//3 64//3 42//3
f 36//3 57//3 35//3
f 44//4 60//4 38//4
f 35//3 48//3 26//3
f 34//5 55//5 33//5
f 33//5 46//5 24//5
f 39//2 63//2 41//2
f 32//4 53//4 31//4
f 43//3 59//3 37//3
f 2//3 35//3 26//3
f 15//3 44//3 38//3
f 14//3 36//3 35//3
f 20//3 37//3 42//3
f 4//3 38//3 28//3
f 22//3 40//3 44//3
f 8//3 24//3 23//3
f 5//3 23//3 32//3
f 9//3 26//3 25//3
f 6//3 25//3 34//3
f 16//3 42//3 39//3
f 10//3 28//3 27//3
f 18//3 41//3 40//3
f 7//3 27//3 36//3
f 21//3 29//3 43//3
f 11//3 30//3 29//3
f 3//3 31//3 30//3
f 17//3 43//3 37//3
f 12//3 32//3 31//3
f 19//3 39//3 41//3
f 1//3 33//3 24//3
f 13//3 34//3 33//3
f 57//3 70//3 48//3
f 56//6 77//6 55//6
f 55//6 68//6 46//6
f 83//7 94//7 86//7
f 53//4 76//4 75//4
f 65//3 81//3 59//3
f 52//4 75//4 74//4
f 52//8 73//8 51//8
f 51//3 87//3 65//3
f 49//3 80//3 58//3
f 40//4 66//4 44//4
f 24//4 45//4 23//4
f 23//4 54//4 32//4
f 26//5 47//5 25//5
f 25//5 56//5 34//5
f 42//2 61//2 39//2
f 28//3 49//3 27//3
f 41//4 62//4 40//4
f 27//3 58//3 36//3
f 29//3 65//3 43//3
f 30//2 51//2 29//2
f 31//4 52//4 30//4
f 71//7 82//7 88//7
f 79//7 84//7 85//7
f 69//9 83//9 78//9
f 70//9 85//9 69//9
f 86//7 76//7 67//7
f 77//9 67//9 68//9
f 78//9 86//9 77//9
f 87//7 74//7 75//7
f 81//7 75//7 76//7
f 80//7 88//7 84//7
f 60//4 88//4 82//4
f 58//3 79//3 57//3
f 59//3 86//3 64//3
f 60//8 72//8 50//8
f 66//4 84//4 88//4
f 45//4 68//4 67//4
f 54//4 67//4 76//4
f 48//6 69//6 47//6
f 47//6 78//6 56//6
f 64//1 89//1 61//1
f 50//3 71//3 49//3
f 62//4 85//4 84//4
f 91//8 90//8 93//8
f 89//8 94//8 90//8
f 85//3 91//3 93//3
f 61//1 91//1 63//1
f 85//7 90//7 83//7
f 86//4 92//4 64//4
f 15//1 4//1 10//1
f 18//1 7//1 14//1
f 16//1 19//1 9//1
f 19//1 14//1 2//1
f 5//1 17//1 20//1
f 8//1 20//1 13//1
f 20//1 16//1 6//1
f 3//1 11//1 21//1
f 12//1 21//1 17//1
f 22//1 10//1 7//1
f 38//2 60//2 50//2
f 37//3 59//3 64//3
f 36//3 58//3 57//3
f 44//4 66//4 60//4
f 35//3 57//3 48//3
f 34//5 56//5 55//5
f 33//5 55//5 46//5
f 39//2 61//2 63//2
f 32//4 54//4 53//4
f 43//3 65//3 59//3
f 2//3 14//3 35//3
f 15//3 22//3 44//3
f 14//3 7//3 36//3
f 20//3 17//3 37//3
f 4//3 15//3 38//3
f 22//3 18//3 40//3
f 8//3 1//3 24//3
f 5//3 8//3 23//3
f 9//3 2//3 26//3
f 6//3 9//3 25//3
f 16//3 20//3 42//3
f 10//3 4//3 28//3
f 18//3 19//3 41//3
f 7//3 10//3 27//3
f 21//3 11//3 29//3
f 11//3 3//3 30//3
f 3//3 12//3 31//3
f 17//3 21//3 43//3
f 12//3 5//3 32//3
f 19//3 16//3 39//3
f 1//3 13//3 33//3
f 13//3 6//3 34//3
f 57//3 79//3 70//3
f 56//6 78//6 77//6
f 55//6 77//6 68//6
f 83//7 90//7 94//7
f 53//4 54//4 76//4
f 65//3 87//3 81//3
f 52//4 53//4 75//4
f 52//8 74//8 73//8
f 51//3 73//3 87//3
f 49//3 71//3 80//3
f 40//4 62//4 66//4
f 24//4 46//4 45//4
f 23//4 45//4 54//4
f 26//5 48//5 47//5
f 25//5 47//5 56//5
f 42//2 64//2 61//2
f 28//3 50//3 49//3
f 41//4 63//4 62//4
f 27//3 49//3 58//3
f 29//3 51//3 65//3
f 30//2 52//2 51//2
f 31//4 53//4 52//4
f 71//7 72//7 82//7
f 79//7 80//7 84//7
f 69//9 85//9 83//9
f 70//9 79//9 85//9
f 86//7 81//7 76//7
f 77//9 86//9 67//9
f 78//9 83//9 86//9
f 87//7 73//7 74//7
f 81//9 87//9 75//9
f 80//9 71//9 88//9
f 60//4 66//4 88//4
f 58//3 80//3 79//3
f 59//3 81//3 86//3
f 60//8 82//8 72//8
f 66//4 62//4 84//4
f 45//4 46//4 68//4
f 54//4 45//4 67//4
f 48//6 70//6 69//6
f 47//6 69//6 78//6
f 64//1 92//1 89//1
f 50//3 72//3 71//3
f 62//4 63//4 85//4
f 91//8 89//8 90//8
f 89//8 92//8 94//8
f 85//3 63//3 91//3
f 61//1 89//1 91//1
f 85//7 93//7 90//7
f 86//4 94//4 92//4
