# Blender v2.78 (sub 0) OBJ File: 'windmill.blend'
# www.blender.org
mtllib windmill_blades.mtl
o Cube.001_Cube.002
v 1.779756 -0.970413 -1.351557
v 2.052316 -0.970413 -1.351557
v 1.779757 -6.673376 -7.956692
v 2.052316 -6.673376 -7.956692
v 1.779756 -2.260936 -0.844652
v 2.052316 -2.260936 -0.844652
v 1.779757 -7.663470 -7.101831
v 2.052316 -7.663470 -7.101831
v 1.779757 -6.917767 -7.745682
v 2.052316 -6.917767 -7.745682
v 1.779756 -1.214803 -1.140547
v 2.052316 -1.214803 -1.140547
v 1.779756 0.112912 -0.096858
v 2.052316 0.112912 -0.096858
v 2.052316 -0.131479 0.114152
v 1.779756 -0.131479 0.114152
vn 0.0000 0.7569 -0.6535
vn 0.0000 -0.6535 -0.7569
vn 0.0000 -0.7569 0.6535
vn 1.0000 0.0000 0.0000
vn -1.0000 0.0000 -0.0000
vn 0.0000 0.2722 0.9622
vn -0.0000 0.6535 0.7569
usemtl None
s off
f 2//1 3//1 1//1
f 10//2 7//2 9//2
f 8//3 5//3 7//3
f 2//4 15//4 12//4
f 9//5 5//5 11//5
f 4//4 12//4 10//4
f 10//4 6//4 8//4
f 9//5 1//5 3//5
f 6//6 11//6 5//6
f 4//2 9//2 3//2
f 16//7 14//7 13//7
f 12//3 16//3 11//3
f 1//5 16//5 13//5
f 1//1 14//1 2//1
f 2//1 4//1 3//1
f 10//2 8//2 7//2
f 8//3 6//3 5//3
f 2//4 14//4 15//4
f 9//5 7//5 5//5
f 4//4 2//4 12//4
f 10//4 12//4 6//4
f 9//5 11//5 1//5
f 6//6 12//6 11//6
f 4//2 10//2 9//2
f 16//7 15//7 14//7
f 12//3 15//3 16//3
f 1//5 11//5 16//5
f 1//1 13//1 14//1
o Cube.002_Cube.003
v 1.779756 0.451648 -1.601377
v 2.052316 0.451648 -1.601377
v 1.779756 2.060014 -10.178367
v 2.052316 2.060014 -10.178367
v 1.779756 -0.749294 -2.294299
v 2.052316 -0.749294 -2.294299
v 1.779756 0.004552 -10.570237
v 2.052316 0.004552 -10.570237
v 1.779756 1.742665 -10.237876
v 2.052316 1.742665 -10.237876
v 1.779756 0.134299 -1.660886
v 2.052316 0.134299 -1.660886
v 1.779756 0.146126 0.027892
v 2.052316 0.146126 0.027892
v 2.052316 -0.171223 -0.031617
v 1.779756 -0.171223 -0.031617
vn 0.0000 0.9829 0.1843
vn -0.0000 0.1878 -0.9822
vn 0.0000 -0.9959 -0.0907
vn 1.0000 -0.0000 0.0000
vn -1.0000 0.0000 -0.0000
vn 0.0000 -0.5826 0.8127
vn 0.0000 0.1843 -0.9829
vn 0.0000 -0.1843 0.9829
vn 0.0000 -0.9829 -0.1843
usemtl None
s off
f 18//8 19//8 17//8
f 25//9 24//9 23//9
f 24//10 21//10 23//10
f 28//11 30//11 31//11
f 25//12 21//12 27//12
f 26//11 18//11 28//11
f 26//11 22//11 24//11
f 25//12 17//12 19//12
f 22//13 27//13 21//13
f 20//14 25//14 19//14
f 31//15 29//15 32//15
f 28//16 32//16 27//16
f 27//12 29//12 17//12
f 17//8 30//8 18//8
f 18//8 20//8 19//8
f 25//9 26//9 24//9
f 24//10 22//10 21//10
f 28//11 18//11 30//11
f 25//12 23//12 21//12
f 26//11 20//11 18//11
f 26//11 28//11 22//11
f 25//12 27//12 17//12
f 22//13 28//13 27//13
f 20//14 26//14 25//14
f 31//15 30//15 29//15
f 28//16 31//16 32//16
f 27//12 32//12 29//12
f 17//8 29//8 30//8
o Cube.003_Cube.004
v 1.779756 1.533604 -0.645328
v 2.052316 1.533604 -0.645328
v 1.779756 9.242159 -4.735534
v 2.052316 9.242159 -4.735534
v 1.779756 1.326576 -2.016292
v 2.052316 1.326576 -2.016292
v 1.779756 8.629046 -5.891027
v 2.052316 8.629046 -5.891027
v 1.779756 9.090821 -5.020751
v 2.052316 9.090821 -5.020751
v 1.779756 1.382266 -0.930544
v 2.052316 1.382266 -0.930544
v 1.779756 0.069301 0.131640
v 2.052316 0.069301 0.131640
v 2.052316 -0.082037 -0.153576
v 1.779756 -0.082037 -0.153576
vn 0.0000 0.4687 0.8834
vn 0.0000 0.8834 -0.4687
vn 0.0000 -0.4687 -0.8834
vn 1.0000 0.0000 0.0000
vn -1.0000 0.0000 -0.0000
vn 0.0000 -0.9987 0.0512
vn 0.0000 -0.8834 0.4687
vn 0.0000 0.8833 -0.4687
usemtl None
s off
f 34//17 35//17 33//17
f 42//18 39//18 41//18
f 40//19 37//19 39//19
f 44//20 46//20 47//20
f 41//21 37//21 43//21
f 36//20 44//20 42//20
f 42//20 38//20 40//20
f 35//21 43//21 33//21
f 38//22 43//22 37//22
f 36//18 41//18 35//18
f 47//23 45//23 48//23
f 44//19 48//19 43//19
f 43//21 45//21 33//21
f 33//17 46//17 34//17
f 34//17 36//17 35//17
f 42//18 40//18 39//18
f 40//19 38//19 37//19
f 44//20 34//20 46//20
f 41//21 39//21 37//21
f 36//20 34//20 44//20
f 42//20 44//20 38//20
f 35//21 41//21 43//21
f 38//22 44//22 43//22
f 36//24 42//24 41//24
f 47//23 46//23 45//23
f 44//19 47//19 48//19
f 43//21 48//21 45//21
f 33//17 45//17 46//17
o Cube.004_Cube.005
v 1.779756 1.460723 0.796670
v 2.052316 1.460723 0.796670
v 1.779757 9.464778 4.273267
v 2.052316 9.464778 4.273267
v 1.779756 2.403507 -0.219972
v 2.052316 2.403507 -0.219972
v 1.779757 9.985911 3.073478
v 2.052316 9.985911 3.073478
v 1.779757 9.593412 3.977116
v 2.052316 9.593412 3.977116
v 1.779756 1.589358 0.500520
v 2.052316 1.589358 0.500520
v 1.779756 -0.059712 0.136262
v 2.052316 -0.059712 0.136263
v 2.052316 0.068922 -0.159888
v 1.779756 0.068922 -0.159888
vn 0.0000 -0.3984 0.9172
vn 0.0000 0.9172 0.3984
vn 0.0000 0.3984 -0.9172
vn 1.0000 -0.0000 0.0000
vn -1.0000 -0.0000 0.0000
vn 0.0000 -0.6627 -0.7489
vn -0.0000 -0.9172 -0.3984
usemtl None
s off
f 50//25 51//25 49//25
f 58//26 55//26 57//26
f 56//27 53//27 55//27
f 50//28 63//28 60//28
f 57//29 53//29 59//29
f 52//28 60//28 58//28
f 58//28 54//28 56//28
f 51//29 59//29 49//29
f 54//30 59//30 53//30
f 52//26 57//26 51//26
f 64//31 62//31 61//31
f 60//27 64//27 59//27
f 59//29 61//29 49//29
f 49//25 62//25 50//25
f 50//25 52//25 51//25
f 58//26 56//26 55//26
f 56//27 54//27 53//27
f 50//28 62//28 63//28
f 57//29 55//29 53//29
f 52//28 50//28 60//28
f 58//28 60//28 54//28
f 51//29 57//29 59//29
f 54//30 60//30 59//30
f 52//26 58//26 57//26
f 64//31 63//31 62//31
f 60//27 63//27 64//27
f 59//29 64//29 61//29
f 49//25 61//25 62//25
o Cube.005_Cube.006
v 1.779756 0.287884 1.638760
v 2.052316 0.287884 1.638760
v 1.779756 2.560214 10.064203
v 2.052316 2.560214 10.064203
v 1.779756 1.670543 1.741992
v 2.052316 1.670543 1.741992
v 1.779756 3.823168 9.723586
v 2.052316 3.823168 9.723586
v 1.779756 2.871956 9.980126
v 2.052316 2.871956 9.980126
v 1.779756 0.599626 1.554683
v 2.052316 0.599626 1.554683
v 1.779756 -0.143764 0.038278
v 2.052316 -0.143764 0.038278
v 2.052316 0.167978 -0.045799
v 1.779756 0.167978 -0.045799
vn 0.0000 -0.9655 0.2604
vn 0.0000 0.2604 0.9655
vn 0.0000 0.9655 -0.2604
vn 1.0000 0.0000 0.0000
vn -1.0000 -0.0000 -0.0000
vn 0.0000 0.1723 -0.9850
vn 0.0000 -0.2604 -0.9655
usemtl None
s off
f 66//32 67//32 65//32
f 74//33 71//33 73//33
f 72//34 69//34 71//34
f 66//35 79//35 76//35
f 73//36 69//36 75//36
f 74//35 66//35 76//35
f 74//35 70//35 72//35
f 73//36 65//36 67//36
f 70//37 75//37 69//37
f 68//33 73//33 67//33
f 79//38 77//38 80//38
f 76//34 80//34 75//34
f 75//36 77//36 65//36
f 65//32 78//32 66//32
f 66//32 68//32 67//32
f 74//33 72//33 71//33
f 72//34 70//34 69//34
f 66//35 78//35 79//35
f 73//36 71//36 69//36
f 74//35 68//35 66//35
f 74//35 76//35 70//35
f 73//36 75//36 65//36
f 70//37 76//37 75//37
f 68//33 74//33 73//33
f 79//38 78//38 77//38
f 76//34 79//34 80//34
f 75//36 80//36 77//36
f 65//32 77//32 78//32
o Cube.006_Cube.007
v 1.779756 -1.101740 1.246832
v 2.052316 -1.101740 1.246832
v 1.779756 -6.272237 8.276594
v 2.052316 -6.272237 8.276594
v 1.779756 -0.320375 2.392202
v 2.052316 -0.320375 2.392202
v 1.779756 -5.218492 9.051640
v 2.052316 -5.218492 9.051640
v 1.779756 -6.012136 8.467903
v 2.052316 -6.012136 8.467903
v 1.779756 -0.841638 1.438140
v 2.052316 -0.841638 1.438140
v 1.779756 -0.119562 -0.088529
v 2.052316 -0.119562 -0.088529
v 2.052316 0.140540 0.102780
v 1.779756 0.140540 0.102780
vn 0.0000 -0.8056 -0.5925
vn 0.0000 -0.5925 0.8056
vn 0.0000 0.8056 0.5925
vn 1.0000 0.0000 0.0000
vn -1.0000 -0.0000 -0.0000
vn 0.0000 0.8776 -0.4795
vn 0.0000 0.5925 -0.8056
usemtl None
s off
f 82//39 83//39 81//39
f 90//40 87//40 89//40
f 88//41 85//41 87//41
f 82//42 95//42 92//42
f 89//43 85//43 91//43
f 90//42 82//42 92//42
f 90//42 86//42 88//42
f 89//43 81//43 83//43
f 86//44 91//44 85//44
f 84//40 89//40 83//40
f 95//45 93//45 96//45
f 92//41 96//41 91//41
f 91//43 93//43 81//43
f 81//39 94//39 82//39
f 82//39 84//39 83//39
f 90//40 88//40 87//40
f 88//41 86//41 85//41
f 82//42 94//42 95//42
f 89//43 87//43 85//43
f 90//42 84//42 82//42
f 90//42 92//42 86//42
f 89//43 91//43 81//43
f 86//44 92//44 91//44
f 84//40 90//40 89//40
f 95//45 94//45 93//45
f 92//41 95//41 96//41
f 91//43 96//43 93//43
f 81//39 93//39 94//39
o Cube.007_Cube.008
v 1.779755 -1.661736 -0.083984
v 2.052315 -1.661736 -0.083985
v 1.779751 -10.381577 0.256541
v 2.052311 -10.381577 0.256541
v 1.779756 -2.070050 1.241038
v 2.052316 -2.070050 1.241038
v 1.779752 -10.330533 1.563624
v 2.052312 -10.330533 1.563624
v 1.779751 -10.368978 0.579175
v 2.052311 -10.368978 0.579175
v 1.779756 -1.649136 0.238650
v 2.052315 -1.649136 0.238650
v 1.779756 -0.005331 -0.148670
v 2.052316 -0.005331 -0.148670
v 2.052316 0.007269 0.173964
v 1.779756 0.007269 0.173965
vn -0.0000 -0.0390 -0.9992
vn 0.0000 -0.9992 0.0390
vn 0.0000 0.0390 0.9992
vn 1.0000 -0.0000 0.0000
vn -1.0000 0.0000 0.0000
vn 0.0000 0.9220 0.3872
vn 0.0000 0.9992 -0.0390
usemtl None
s off
f 98//46 99//46 97//46
f 106//47 103//47 105//47
f 104//48 101//48 103//48
f 98//49 111//49 108//49
f 105//50 101//50 107//50
f 100//49 108//49 106//49
f 106//49 102//49 104//49
f 105//50 97//50 99//50
f 102//51 107//51 101//51
f 99//47 106//47 105//47
f 111//52 109//52 112//52
f 108//48 112//48 107//48
f 97//50 112//50 109//50
f 97//46 110//46 98//46
f 98//46 100//46 99//46
f 106//47 104//47 103//47
f 104//48 102//48 101//48
f 98//49 110//49 111//49
f 105//50 103//50 101//50
f 100//49 98//49 108//49
f 106//49 108//49 102//49
f 105//50 107//50 97//50
f 102//51 108//51 107//51
f 99//47 100//47 106//47
f 111//52 110//52 109//52
f 108//48 111//48 112//48
f 97//50 107//50 112//50
f 97//46 109//46 110//46
